<svg width="124" height="47" viewBox="0 0 124 47" fill="none" xmlns="http://www.w3.org/2000/svg">
<path fill-rule="evenodd" clip-rule="evenodd" d="M17.499 0.317482C16.6142 0.403572 16.5982 0.430669 16.5159 2.01106L16.4322 3.61714L12.1905 3.75828C7.70385 3.90759 7.01849 4.10885 7.02663 5.2746C7.03731 6.74942 6.80333 6.7164 17.756 6.7991C26.8905 6.86797 27.9851 6.92471 28.2997 7.34698C28.8188 8.04304 28.7283 8.74446 28.0359 9.39254C27.4354 9.95481 27.1174 9.96808 14.1522 9.96808C-0.230946 9.96808 0.000224216 9.94324 0.000224216 11.4841C0.000224216 12.7848 0.0541548 12.7907 11.6596 12.7907C23.5754 12.7907 23.665 12.802 23.665 14.3197C23.665 15.8064 23.3889 15.873 17.1113 15.9066C10.8262 15.9399 10.0319 16.0986 9.88635 17.3484C9.71642 18.808 10.3012 19.0005 14.9008 19.0005C19.0818 19.0005 19.0882 19.0016 19.5582 19.7223C20.0042 20.4062 19.9994 20.4841 19.4658 21.2042C18.9672 21.8768 18.6874 21.9739 17.0352 22.0478C15.3246 22.1243 15.1676 22.1833 15.1628 22.7535C15.16 23.0956 14.9086 26.9956 14.6039 31.4201C14.2994 35.8446 14.0488 39.7503 14.0474 40.0997L14.0446 40.7348H25.1006H36.1564L36.3266 39.291C36.8592 34.7731 40.7961 31.4661 45.2723 31.7763C49.2862 32.0544 51.978 34.9047 52.0664 38.9701L52.1049 40.7334L66.36 40.7343L80.615 40.7348V39.9504C80.615 39.5188 80.8673 35.4037 81.1754 30.8053C81.4835 26.2073 81.9911 18.4628 82.3029 13.5957C82.6147 8.72838 82.9475 3.73005 83.0425 2.48809L83.2152 0.22998H50.8067C32.9821 0.22998 17.9936 0.269214 17.499 0.317482ZM90.8975 0.817654C90.62 1.5442 90.7031 3.75828 91.0079 3.75828C91.1624 3.75828 91.298 3.2821 91.3096 2.69979C91.3211 2.11776 91.3834 1.35565 91.4483 1.00621C91.5823 0.28474 91.1568 0.13881 90.8975 0.817654ZM86.5137 1.68279C86.5137 2.09772 88.5437 4.3166 88.7858 4.16615C88.9304 4.07639 88.5894 3.43988 88.0282 2.75144C87.1021 1.61589 86.5137 1.20069 86.5137 1.68279ZM94.1035 2.76443C93.4244 3.45992 92.9575 4.11788 93.0659 4.22712C93.2803 4.4422 95.1001 2.79632 95.535 1.99413C96.0071 1.12306 95.3734 1.46404 94.1035 2.76443ZM89.0099 5.34912C88.8004 5.60287 88.5636 6.46039 88.4841 7.2544L88.3394 8.69789L86.5943 8.78172C84.8694 8.86443 84.8472 8.876 84.7053 9.76965C84.6264 10.267 84.234 15.945 83.8332 22.3877C83.4323 28.8303 82.9986 35.5621 82.8692 37.3468C82.7397 39.1318 82.6928 40.6877 82.7647 40.8045C82.8366 40.9214 87.1679 41.0171 92.3899 41.0171H101.884L102.033 39.3737C102.29 36.5271 103.889 34.1327 106.508 32.6751C107.833 31.9375 108.271 31.8435 110.389 31.8435C112.518 31.8435 112.923 31.9313 114.122 32.653C116.532 34.1036 117.692 36.2254 117.692 39.1835V41.0374L120.431 40.9567L123.17 40.876L123.393 38.3356C123.516 36.9384 123.575 34.2075 123.525 32.2669C123.448 29.3325 123.332 28.5487 122.837 27.6096C121.59 25.245 120.348 24.5778 113.619 22.6556C110.839 21.8613 108.156 20.9597 107.658 20.652C107.16 20.3444 104.598 17.7648 101.966 14.9195C99.2969 12.0348 96.7588 9.54581 96.2282 9.29262C95.7049 9.0431 94.7586 8.83902 94.1255 8.83902H92.9741V7.20189C92.9741 6.30147 92.8224 5.41234 92.637 5.22605C92.118 4.70442 89.4683 4.79418 89.0099 5.34912ZM47.1009 5.37057C47.027 5.49307 46.8753 6.57753 46.7641 7.78053L46.5616 9.96808H44.2476H41.9337L41.7548 11.8734C41.6562 12.9214 41.5747 14.1281 41.5736 14.5549L41.5716 15.3311H43.8889H46.2063L46.1071 17.7303L46.0082 20.1296H48.5298H51.0516L51.2271 19.2475C51.3238 18.7623 51.4027 17.6826 51.4027 16.8483V15.3311H53.7551H56.1076L56.2831 14.449C56.3797 13.9638 56.4587 12.7571 56.4587 11.7675V9.96808H54.1885H51.9181L52.008 7.6394L52.0976 5.31073L49.6668 5.22944C48.3295 5.18484 47.1751 5.24835 47.1009 5.37057ZM84.407 6.29865C84.298 6.47591 84.9247 6.58091 86.0923 6.58091C87.26 6.58091 87.8867 6.47591 87.7777 6.29865C87.6822 6.1434 86.9238 6.01639 86.0923 6.01639C85.2609 6.01639 84.5025 6.1434 84.407 6.29865ZM93.8168 6.29865C93.8168 6.45559 94.5659 6.58091 95.5021 6.58091C96.4383 6.58091 97.1874 6.45559 97.1874 6.29865C97.1874 6.14171 96.4383 6.01639 95.5021 6.01639C94.5659 6.01639 93.8168 6.14171 93.8168 6.29865ZM87.2518 11.6032C87.017 11.9851 86.4266 21.1878 86.6067 21.6594C86.7564 22.0515 87.7426 22.1054 94.753 22.1054H102.729L102.907 20.7957C103.006 20.0757 103.086 19.3274 103.086 19.1335C103.086 18.9393 101.414 17.1153 99.3699 15.0802L95.654 11.3794H91.5216C89.249 11.3794 87.3277 11.4802 87.2518 11.6032ZM16.5701 26.4099C16.569 27.0696 16.4881 28.2765 16.3906 29.0914L16.2134 30.5733H47.8174H79.4213L79.5968 29.6913C79.6934 29.206 79.7724 27.9994 79.7724 27.0097V25.2103H48.1725H16.5726L16.5701 26.4099ZM85.2896 26.2688C85.1938 26.8511 85.114 28.0575 85.1123 28.9503L85.1092 30.5733H103.347H121.585L121.325 29.656C120.94 28.2994 120.174 27.4094 118.766 26.6818C116.014 25.2583 115.489 25.2174 99.9629 25.2137L85.4637 25.2103L85.2896 26.2688ZM43.3086 33.1611C38.9504 33.9221 36.3741 38.956 38.3414 42.867C40.311 46.7823 45.6588 47.4019 48.773 44.0754C49.9502 42.8179 50.5575 41.5463 50.7457 39.9434C51.2505 35.6473 47.6866 32.397 43.3086 33.1611ZM108.619 33.2345C106.67 33.7604 105.046 35.0543 104.116 36.8221C103.412 38.1586 103.33 38.5727 103.418 40.3642C103.501 42.0643 103.653 42.5901 104.357 43.6102C106.677 46.9743 111.951 47.0412 114.761 43.7421C117.573 40.4401 116.797 35.5361 113.184 33.775C111.493 32.9508 110.226 32.801 108.619 33.2345ZM42.4014 37.5594C41.7851 38.1126 41.4916 38.676 41.3787 39.5217C41.2385 40.5731 41.3174 40.8051 42.0767 41.5681C43.6744 43.1733 46.1863 42.5103 46.9155 40.2905C47.8214 37.532 44.6016 35.5838 42.4014 37.5594ZM107.974 37.7428C106.757 38.965 106.679 40.2855 107.746 41.5599C108.359 42.2921 108.671 42.4284 109.734 42.4284C110.752 42.4284 111.152 42.2701 111.815 41.6033C112.486 40.9293 112.636 40.5392 112.636 39.4728C112.636 37.766 111.687 36.7831 110.039 36.7831C109.151 36.7831 108.738 36.9751 107.974 37.7428Z" fill="url(#paint0_linear_195_327)"/>
<defs>
<linearGradient id="paint0_linear_195_327" x1="61.7714" y1="0.22998" x2="61.7714" y2="46.23" gradientUnits="userSpaceOnUse">
<stop stop-color="#EB1B24"/>
<stop offset="1" stop-color="#E76475"/>
</linearGradient>
</defs>
</svg>
