<svg width="131" height="50" viewBox="0 0 131 50" fill="none" xmlns="http://www.w3.org/2000/svg">
<path fill-rule="evenodd" clip-rule="evenodd" d="M18.5552 0.326871C17.617 0.418176 17.6 0.446914 17.5128 2.12303L17.424 3.82639L12.9263 3.97607C8.16887 4.13444 7.44213 4.34788 7.45077 5.58424C7.46209 7.14839 7.21398 7.11337 18.8278 7.20108C28.5136 7.27413 29.6743 7.3343 30.0079 7.78214C30.5583 8.52037 30.4624 9.26427 29.7282 9.9516C29.0914 10.5479 28.7542 10.562 15.0064 10.562C-0.244886 10.562 0.00023775 10.5357 0.00023775 12.1699C0.00023775 13.5493 0.0574236 13.5556 12.3634 13.5556C24.9985 13.5556 25.0935 13.5676 25.0935 15.1772C25.0935 16.754 24.8007 16.8246 18.1442 16.8602C11.4797 16.8956 10.6374 17.0638 10.4831 18.3894C10.3029 19.9374 10.923 20.1415 15.8002 20.1415C20.2336 20.1415 20.2404 20.1427 20.7387 20.907C21.2117 21.6323 21.2066 21.715 20.6407 22.4786C20.1121 23.192 19.8154 23.295 18.0635 23.3734C16.2496 23.4545 16.0831 23.5171 16.0781 24.1218C16.0751 24.4846 15.8085 28.6209 15.4854 33.3134C15.1625 38.0059 14.8968 42.1481 14.8953 42.5187L14.8924 43.1923H26.6157H38.3388L38.5193 41.6611C39.084 36.8695 43.2586 33.3622 48.005 33.6912C52.2612 33.986 55.1154 37.009 55.2092 41.3207L55.25 43.1908L70.3655 43.1917L85.481 43.1923V42.3604C85.481 41.9026 85.7485 37.5383 86.0752 32.6614C86.402 27.7848 86.9402 19.5713 87.2708 14.4094C87.6014 9.24721 87.9543 3.94614 88.055 2.62895L88.2382 0.23407H53.8734C34.9729 0.23407 19.0797 0.27568 18.5552 0.326871ZM96.3841 0.857338C96.0899 1.62789 96.178 3.97607 96.5012 3.97607C96.665 3.97607 96.8089 3.47105 96.8211 2.85347C96.8333 2.23619 96.8994 1.42792 96.9682 1.05731C97.1103 0.292146 96.659 0.137377 96.3841 0.857338ZM91.7357 1.77488C91.7357 2.21494 93.8882 4.56821 94.145 4.40865C94.2984 4.31346 93.9368 3.6384 93.3417 2.90826C92.3597 1.70393 91.7357 1.26357 91.7357 1.77488ZM99.7837 2.92203C99.0635 3.65965 98.5685 4.35746 98.6835 4.47331C98.9107 4.70142 100.84 2.95585 101.302 2.10507C101.802 1.18125 101.13 1.54287 99.7837 2.92203ZM94.3826 5.66327C94.1605 5.93239 93.9094 6.84185 93.8251 7.68395L93.6717 9.21488L91.8212 9.30379C89.9921 9.3915 89.9686 9.40378 89.8182 10.3516C89.7345 10.879 89.3184 16.901 88.8934 23.7339C88.4684 30.5668 88.0085 37.7062 87.8712 39.5991C87.7339 41.4922 87.6842 43.1423 87.7604 43.2662C87.8367 43.3902 92.4294 43.4916 97.9666 43.4916H108.034L108.192 41.7488C108.464 38.7297 110.16 36.1902 112.936 34.6443C114.342 33.8621 114.807 33.7624 117.052 33.7624C119.309 33.7624 119.739 33.8555 121.01 34.621C123.566 36.1594 124.796 38.4097 124.796 41.547V43.5132L127.7 43.4276L130.604 43.342L130.842 40.6477C130.972 39.1659 131.035 36.2696 130.981 34.2115C130.899 31.0993 130.776 30.268 130.251 29.272C128.929 26.7643 127.612 26.0566 120.478 24.018C117.529 23.1756 114.684 22.2194 114.156 21.8931C113.628 21.5668 110.912 18.8309 108.121 15.8134C105.291 12.7539 102.599 10.1142 102.037 9.84563C101.482 9.581 100.478 9.36456 99.807 9.36456H98.5861V7.62827C98.5861 6.67331 98.4253 5.73032 98.2287 5.53275C97.6783 4.97953 94.8687 5.07473 94.3826 5.66327ZM49.944 5.68602C49.8656 5.81594 49.7048 6.96608 49.5868 8.24196L49.3721 10.562H46.9185H44.4648L44.2751 12.5827C44.1706 13.6942 44.0842 14.974 44.083 15.4266L44.0809 16.2498H46.5381H48.9953L48.8902 18.7944L48.7853 21.339H51.4591H54.1331L54.3193 20.4035C54.4217 19.8889 54.5054 18.7438 54.5054 17.8589V16.2498H56.9998H59.4943L59.6804 15.3143C59.7829 14.7997 59.8666 13.52 59.8666 12.4704V10.562H57.4594H55.052L55.1473 8.09228L55.2423 5.62256L52.6647 5.53634C51.2467 5.48904 50.0226 5.5564 49.944 5.68602ZM89.5019 6.67032C89.3863 6.85832 90.0508 6.96968 91.289 6.96968C92.5271 6.96968 93.1916 6.85832 93.076 6.67032C92.9747 6.50567 92.1706 6.37096 91.289 6.37096C90.4073 6.37096 89.6032 6.50567 89.5019 6.67032ZM99.4796 6.67032C99.4796 6.83676 100.274 6.96968 101.267 6.96968C102.259 6.96968 103.054 6.83676 103.054 6.67032C103.054 6.50387 102.259 6.37096 101.267 6.37096C100.274 6.37096 99.4796 6.50387 99.4796 6.67032ZM92.5184 12.2962C92.2694 12.7012 91.6434 22.4613 91.8343 22.9615C91.993 23.3773 93.0388 23.4345 100.472 23.4345H108.93L109.119 22.0455C109.223 21.2818 109.308 20.4882 109.308 20.2825C109.308 20.0766 107.535 18.1421 105.368 15.9837L101.428 12.0588H97.046C94.6361 12.0588 92.5989 12.1657 92.5184 12.2962ZM17.5703 27.9997C17.5691 28.6993 17.4833 29.9794 17.3799 30.8437L17.192 32.4153H50.7037H84.2152L84.4013 31.4798C84.5038 30.9652 84.5875 29.6854 84.5875 28.6359V26.7275H51.0802H17.5729L17.5703 27.9997ZM90.4377 27.8501C90.3362 28.4676 90.2516 29.7471 90.2498 30.694L90.2465 32.4153H109.585H128.924L128.648 31.4424C128.24 30.0037 127.428 29.0598 125.935 28.288C123.017 26.7784 122.46 26.7349 105.997 26.7311L90.6224 26.7275L90.4377 27.8501ZM45.9228 35.1598C41.3015 35.9669 38.5696 41.3057 40.6557 45.4536C42.7442 49.6061 48.4148 50.2632 51.717 46.7352C52.9653 45.4016 53.6092 44.0529 53.8088 42.3529C54.344 37.7966 50.565 34.3495 45.9228 35.1598ZM115.176 35.2377C113.109 35.7954 111.386 37.1677 110.4 39.0425C109.654 40.46 109.568 40.8992 109.66 42.7992C109.748 44.6023 109.909 45.16 110.656 46.2419C113.117 49.8096 118.708 49.8806 121.688 46.3817C124.67 42.8797 123.847 37.6787 120.016 35.8109C118.223 34.9368 116.88 34.7779 115.176 35.2377ZM44.9607 39.8245C44.3073 40.4112 43.996 41.0087 43.8763 41.9056C43.7277 43.0207 43.8114 43.2668 44.6164 44.076C46.3106 45.7785 48.9742 45.0753 49.7474 42.7211C50.7079 39.7954 47.2937 37.7293 44.9607 39.8245ZM114.491 40.0191C113.201 41.3153 113.118 42.7157 114.249 44.0673C114.9 44.8438 115.23 44.9884 116.357 44.9884C117.437 44.9884 117.861 44.8205 118.564 44.1134C119.276 43.3985 119.435 42.9848 119.435 41.8538C119.435 40.0436 118.429 39.0012 116.681 39.0012C115.739 39.0012 115.301 39.2048 114.491 40.0191Z" fill="white"/>
</svg>
