<svg width="17" height="19" viewBox="0 0 17 19" fill="none" xmlns="http://www.w3.org/2000/svg">
<path fill-rule="evenodd" clip-rule="evenodd" d="M16.6448 0.0671824C14.1139 0.738958 10.3009 5.49071 6.36191 12.8816C6.06302 13.4424 5.75683 14.0334 5.68145 14.1949C5.60607 14.3564 5.52955 14.4878 5.51141 14.487C5.49327 14.4862 5.35179 14.2151 5.19695 13.8844C4.55762 12.5188 3.03409 10.3741 2.50576 10.0959C2.19041 9.9298 1.73142 9.94346 1.16023 10.1358C0.683994 10.2962 0 10.6469 0 10.7307C0 10.7556 0.220933 11.0898 0.490903 11.4733C2.4205 14.2142 3.75418 16.8555 3.88291 18.1912C3.91854 18.5609 3.93829 18.605 4.12534 18.7351C4.6281 19.0844 5.52045 19.0885 6.49315 18.7461L7.08877 18.5364L7.16272 18.0066C7.48861 15.6723 8.97347 12.2958 11.5771 7.96843C12.9989 5.60535 15.5876 1.80428 16.7861 0.320257C16.9166 0.158586 17.0123 0.0158262 16.9987 0.00303347C16.9852 -0.00975932 16.8259 0.0191014 16.6448 0.0671824Z" fill="url(#paint0_linear_149_131)"/>
<defs>
<linearGradient id="paint0_linear_149_131" x1="8.5" y1="0" x2="8.5" y2="19" gradientUnits="userSpaceOnUse">
<stop stop-color="#EB1B25"/>
<stop offset="1" stop-color="#E85A6A"/>
</linearGradient>
</defs>
</svg>
