<svg width="25" height="25" viewBox="0 0 25 25" fill="none" xmlns="http://www.w3.org/2000/svg">
<circle cx="12.0174" cy="12.9825" r="11.7093" fill="url(#paint0_linear_158_20)" stroke="white" stroke-width="0.616279"/>
<path fill-rule="evenodd" clip-rule="evenodd" d="M10.8685 4.18701C9.97916 4.429 9.42085 5.35047 9.63982 6.21493C9.80509 6.86746 10.2727 7.33882 10.9194 7.50482C11.7896 7.72821 12.7096 7.14201 12.9438 6.21493C13.1654 5.33799 12.5837 4.40224 11.6775 4.17766C11.3964 4.10801 11.1483 4.11086 10.8685 4.18701ZM11.0087 8.30713C10.633 8.38148 10.2464 8.64601 10.0436 8.96727C9.79568 9.3602 9.80977 9.17982 9.79814 12.1119C9.79109 13.8885 9.79955 14.8186 9.82411 14.9676C9.91595 15.5246 10.3138 15.9923 10.8561 16.1811C11.0033 16.2323 11.251 16.2401 13.0637 16.2508L15.1054 16.2629L15.4654 16.9836C16.7459 19.5478 17.1534 20.327 17.2862 20.4646C17.7722 20.9685 18.6152 20.8057 18.9008 20.1529C18.9999 19.9263 18.9997 19.6028 18.9002 19.3734C18.8605 19.2817 18.3179 18.1955 17.6947 16.9596C16.5043 14.5995 16.4512 14.5097 16.1486 14.3444C16.0164 14.2722 15.9819 14.2705 14.4032 14.2609L12.7927 14.2512V13.9143V13.5774L14.1518 13.567C15.6454 13.5558 15.5613 13.5673 15.806 13.3399C16.1108 13.0566 16.117 12.5769 15.8198 12.284C15.592 12.0595 15.6102 12.0621 14.1334 12.05L12.7927 12.0391V10.8733C12.7927 10.2225 12.7775 9.62663 12.7582 9.52451C12.6781 9.09833 12.3481 8.62646 12.0091 8.45335C11.6865 8.28854 11.3506 8.23945 11.0087 8.30713ZM8.54291 11.2305C8.44088 11.2666 8.17527 11.3877 7.95266 11.4998C6.53315 12.2145 5.51897 13.5285 5.16982 15.1053C5.04556 15.6665 5.02381 16.5339 5.11993 17.0931C5.45192 19.0242 6.7915 20.6135 8.61036 21.2339C11.0726 22.0739 13.6989 21.0251 14.9492 18.7027L15.0806 18.4585L14.7887 17.8689L14.4968 17.2794H14.2066H13.9164L13.8738 17.4239C13.8118 17.6344 13.5937 18.0789 13.4276 18.3333C13.0745 18.8739 12.4056 19.4354 11.797 19.7022C10.7165 20.1758 9.41559 20.0949 8.40762 19.4913C7.53096 18.9663 6.93633 18.1688 6.66141 17.1492C6.58064 16.8495 6.57295 16.7662 6.5745 16.2085C6.57595 15.6931 6.58755 15.5545 6.64819 15.3304C6.93694 14.2629 7.5685 13.4345 8.49171 12.9122L8.77901 12.7496V11.9548C8.77901 11.5177 8.76761 11.1612 8.75371 11.1625C8.73981 11.1639 8.64494 11.1945 8.54291 11.2305Z" fill="white"/>
<defs>
<linearGradient id="paint0_linear_158_20" x1="12.0174" y1="0.965088" x2="12.0174" y2="25" gradientUnits="userSpaceOnUse">
<stop stop-color="#EA2B36"/>
<stop offset="1" stop-color="#E75D6D"/>
</linearGradient>
</defs>
</svg>
