<svg width="25" height="25" viewBox="0 0 25 25" fill="none" xmlns="http://www.w3.org/2000/svg">
<circle cx="12.6337" cy="12.0174" r="11.7093" fill="url(#paint0_linear_158_17)" stroke="white" stroke-width="0.616279"/>
<path fill-rule="evenodd" clip-rule="evenodd" d="M11.4847 3.22192C10.5954 3.46391 10.0371 4.38538 10.256 5.24984C10.4213 5.90237 10.8889 6.37373 11.5356 6.53973C12.4058 6.76312 13.3258 6.17692 13.56 5.24984C13.7816 4.37291 13.2 3.43716 12.2937 3.21258C12.0126 3.14292 11.7645 3.14577 11.4847 3.22192ZM11.6249 7.34205C11.2493 7.4164 10.8626 7.68092 10.6598 8.00219C10.4119 8.39512 10.426 8.21473 10.4143 11.1469C10.4073 12.9234 10.4158 13.8535 10.4403 14.0025C10.5322 14.5595 10.93 15.0272 11.4723 15.216C11.6196 15.2672 11.8672 15.275 13.6799 15.2857L15.7217 15.2978L16.0816 16.0185C17.3621 18.5827 17.7697 19.3619 17.9024 19.4995C18.3884 20.0034 19.2314 19.8406 19.517 19.1878C19.6161 18.9613 19.6159 18.6377 19.5164 18.4083C19.4767 18.3166 18.9342 17.2304 18.3109 15.9946C17.1206 13.6344 17.0674 13.5446 16.7648 13.3793C16.6326 13.3071 16.5981 13.3054 15.0194 13.2959L13.4089 13.2861V12.9492V12.6123L14.768 12.602C16.2616 12.5907 16.1776 12.6022 16.4222 12.3748C16.727 12.0915 16.7333 11.6118 16.436 11.3189C16.2082 11.0944 16.2265 11.097 14.7496 11.0849L13.4089 11.074V9.90819C13.4089 9.2574 13.3937 8.66155 13.3744 8.55942C13.2943 8.13324 12.9643 7.66137 12.6253 7.48826C12.3027 7.32345 11.9668 7.27436 11.6249 7.34205ZM9.15912 10.2654C9.05709 10.3015 8.79148 10.4227 8.56888 10.5347C7.14936 11.2494 6.13518 12.5634 5.78603 14.1402C5.66177 14.7014 5.64002 15.5688 5.73615 16.128C6.06813 18.0592 7.40771 19.6484 9.22658 20.2688C11.6888 21.1088 14.3151 20.06 15.5654 17.7377L15.6968 17.4935L15.4049 16.9039L15.1131 16.3143H14.8228H14.5326L14.49 16.4588C14.428 16.6693 14.2099 17.1139 14.0438 17.3682C13.6907 17.9088 13.0218 18.4703 12.4132 18.7371C11.3327 19.2108 10.0318 19.1298 9.02384 18.5262C8.14717 18.0012 7.55254 17.2037 7.27763 16.1841C7.19685 15.8844 7.18916 15.8012 7.19071 15.2434C7.19216 14.728 7.20376 14.5895 7.2644 14.3653C7.55315 13.2978 8.18471 12.4694 9.10792 11.9471L9.39522 11.7846V10.9898C9.39522 10.5526 9.38382 10.1961 9.36992 10.1974C9.35602 10.1988 9.26115 10.2294 9.15912 10.2654Z" fill="white"/>
<defs>
<linearGradient id="paint0_linear_158_17" x1="12.6337" y1="0" x2="12.6337" y2="24.0349" gradientUnits="userSpaceOnUse">
<stop stop-color="#2BEA3E"/>
<stop offset="1" stop-color="#335F4A"/>
</linearGradient>
</defs>
</svg>
